<?xml version="1.0" encoding="UTF-8"?>
<svg version="1.1" xmlns="http://www.w3.org/2000/svg" width="512" height="395">
<path d="M0 0 C4.74787845 0.00377143 9.49573603 0.0024083 14.24361372 -0.00180227 C43.87676457 -0.02737991 73.49176833 -0.03766376 103.10591841 1.12856883 C104.09742903 1.16637461 105.08893965 1.2041804 106.11049604 1.24313182 C111.42436116 1.45073345 116.73402165 1.70333462 122.04341841 2.00356883 C122.78779158 2.0445872 123.53216475 2.08560557 124.29909468 2.12786692 C190.72673192 5.83805564 190.72673192 5.83805564 212.10201216 27.88247508 C246.15597081 66.05211685 233.45432259 161.59628813 230.73482466 209.40200633 C227.01269563 271.74953456 227.01269563 271.74953456 211.10591841 289.12856883 C210.41369184 289.90071727 209.72146528 290.6728657 209.00826216 291.46841258 C187.53153564 314.23298513 152.07006358 312.36427832 123.10591841 314.12856883 C122.24820845 314.18254832 121.39049849 314.23652781 120.50679731 314.29214305 C84.45885508 316.51658494 48.30962961 316.28915781 12.21183681 316.25713766 C7.46395837 316.25336623 2.71610078 316.25472936 -2.03177691 316.25893992 C-31.66492776 316.28451757 -61.27993151 316.29480142 -90.89408159 315.12856883 C-92.38134752 315.07186015 -92.38134752 315.07186015 -93.89865923 315.01400584 C-99.21252434 314.8064042 -104.52218484 314.55380304 -109.83158159 314.25356883 C-110.57595476 314.21255046 -111.32032793 314.17153208 -112.08725786 314.12927073 C-178.51489511 310.41908202 -178.51489511 310.41908202 -199.89017534 288.37466258 C-233.944134 250.20502081 -221.24248578 154.66084952 -218.52298784 106.85513133 C-214.80085882 44.5076031 -214.80085882 44.5076031 -198.89408159 27.12856883 C-198.20185503 26.35642039 -197.50962847 25.58427195 -196.79642534 24.78872508 C-175.31969882 2.02415252 -139.85822677 3.89285934 -110.89408159 2.12856883 C-110.03637163 2.07458934 -109.17866167 2.02060984 -108.2949605 1.96499461 C-72.24701827 -0.25944729 -36.0977928 -0.03202016 0 0 Z " fill="#8629E7" transform="translate(249.89408159255981,43.87143117189407)"/>
<path d="M0 0 C4.36855815 1.74742326 8.18469447 3.77906903 12.1875 6.1875 C13.71289681 7.094835 15.2389842 8.00100965 16.765625 8.90625 C17.60029297 9.40125 18.43496094 9.89625 19.29492188 10.40625 C24.32225035 13.36819949 29.3810502 16.27563945 34.4375 19.1875 C35.54311279 19.82453857 36.64872559 20.46157715 37.7878418 21.11791992 C40.06009849 22.4269711 42.33247897 23.73580743 44.60498047 25.04443359 C51.14678438 28.81258039 57.68512132 32.58673959 64.22363281 36.3605957 C69.77572939 39.56466352 75.3296392 42.76551872 80.88671875 45.9609375 C92.32032959 52.53921282 103.73299389 59.13939727 115 66 C113.74327861 69.77016416 112.70437669 70.00711403 109.27734375 71.86328125 C108.27646729 72.41298584 107.27559082 72.96269043 106.24438477 73.52905273 C105.15311279 74.11759033 104.06184082 74.70612793 102.9375 75.3125 C100.63178953 76.5788684 98.32712644 77.84714539 96.0234375 79.1171875 C95.4346431 79.44071701 94.84584869 79.76424652 94.23921204 80.09757996 C88.45653569 83.28123823 82.75404915 86.59445875 77.0625 89.9375 C75.07173919 91.10437927 73.08085253 92.27104387 71.08984375 93.4375 C70.0932373 94.02144531 69.09663086 94.60539062 68.06982422 95.20703125 C62.76672618 98.30437116 57.44594054 101.37094537 52.125 104.4375 C51.05572266 105.05423584 49.98644531 105.67097168 48.88476562 106.30639648 C43.83698236 109.21674483 38.78712729 112.12340611 33.7322998 115.02149963 C31.97519518 116.02921959 30.21870476 117.0380018 28.46240234 118.04711914 C26.27254945 119.3049558 24.08155559 120.5608092 21.88916016 121.81420898 C15.86381074 125.27764832 9.97897283 128.88680121 4.17749023 132.71484375 C2 134 2 134 0 134 C0 89.78 0 45.56 0 0 Z " fill="#FEFDFE" transform="translate(211,135)"/>
<path d="M0 0 C3.8665284 3.222107 4.88059018 6.14922412 6 11 C3.66475218 8.74259377 1.81294927 6.7194239 0 4 C0 2.68 0 1.36 0 0 Z " fill="#320F57" transform="translate(464,76)"/>
</svg>
